<?xml version="1.0" encoding="utf-8"?>
<!-- Generator: Adobe Illustrator 13.0.0, SVG Export Plug-In . SVG Version: 6.00 Build 14948)  -->
<!DOCTYPE svg PUBLIC "-//W3C//DTD SVG 1.1//EN" "http://www.w3.org/Graphics/SVG/1.1/DTD/svg11.dtd">
<svg version="1.1" id="Capa_1" xmlns="http://www.w3.org/2000/svg" xmlns:xlink="http://www.w3.org/1999/xlink" x="0px" y="0px"
	 width="165px" height="165px" viewBox="0 0 165 165" enable-background="new 0 0 165 165" xml:space="preserve">
<g>
	<g>
		<rect x="41.25" y="82.5" fill="#595959" width="5.156" height="43.828"/>
	</g>
	<g>
		<path fill="#8A8A8A" d="M41.25,79.922h-7.734c-1.424,0-2.578-1.154-2.578-2.578V61.875c0-1.424,1.154-2.578,2.578-2.578h7.734
			V79.922z"/>
	</g>
	<g>
		<path fill="#676767" d="M104.293,0H63.82c-5.855,0-10.778,4.062-12.104,9.515C41,10.877,32.687,20.052,32.687,31.133v15.566
			c0,8.023,3.406,15.508,9.34,20.828V49.813c0-8.583,6.983-15.566,15.566-15.566h52.926c6.868,0,12.453,5.586,12.453,12.454v20.824
			c5.936-5.318,9.34-12.803,9.34-20.824V28.02C132.313,12.57,119.744,0,104.293,0z"/>
	</g>
	<g>
		<g>
			<path fill="#D1D1D1" d="M82.5,112.078c-10.875,0-21.08-6.566-28.359-14.109c0-0.645,0,10.903,0,12.891
				c0.786,0.48,0.367,6.084,0.486,7.066c1.553,12.642,13.535,22.173,27.874,22.173c14.335,0,26.317-9.533,27.873-22.173
				c0.121-0.983-0.312-6.588,0.486-7.066c0-5.371,0-9.614,0-12.891C103.58,105.511,93.375,112.078,82.5,112.078z"/>
		</g>
	</g>
	<g>
		<g>
			<path fill="#C7C7C7" d="M109.913,100.444c-7.219,7.19-16.828,11.634-27.413,11.634c-10.875,0-21.08-6.566-28.359-14.109
				c0,3.307,0,14.932,0,12.891c0.786,0.48,0.367,6.084,0.486,7.066c0.687,5.588,3.416,10.563,7.48,14.381
				C80.852,129.666,102.128,111.156,109.913,100.444z"/>
		</g>
	</g>
	<g>
		<path fill="#595959" d="M46.406,85.078h-7.734c-1.424,0-2.578-1.154-2.578-2.578V56.719c0-1.424,1.154-2.578,2.578-2.578h7.734
			V85.078z"/>
	</g>
	<g>
		<path fill="#8A8A8A" d="M123.75,79.922h7.734c1.424,0,2.578-1.154,2.578-2.578V61.875c0-1.424-1.154-2.578-2.578-2.578h-7.734
			V79.922z"/>
	</g>
	<g>
		<path fill="#595959" d="M118.594,85.078h7.734c1.424,0,2.578-1.154,2.578-2.578V56.719c0-1.424-1.154-2.578-2.578-2.578h-7.734
			V85.078z"/>
	</g>
	<g>
		<g>
			<path fill="#E4E4E4" d="M110.52,34.246H57.594c-8.583,0-15.566,6.983-15.566,15.566v18.68c0,24.034,18.157,43.586,40.473,43.586
				c22.316,0,40.473-19.553,40.473-43.586V46.7C122.973,39.833,117.388,34.246,110.52,34.246z"/>
		</g>
	</g>
	<g>
		<g>
			<path fill="#595959" d="M104.414,100.326c-6.229,0-12.616-2.795-18.5-8.191c-1.05-0.963-1.121-2.594-0.158-3.643
				c0.964-1.054,2.598-1.119,3.643-0.157c6.504,5.962,13.543,8.118,19.845,6.062c6.166-2.014,11.081-7.957,12.516-15.14
				c0.276-1.395,1.618-2.307,3.034-2.023c1.395,0.278,2.301,1.637,2.021,3.033c-1.795,8.979-8.064,16.449-15.973,19.033
				C108.74,99.985,106.587,100.326,104.414,100.326z"/>
		</g>
	</g>
	<g>
		<circle fill="#8A8A8A" cx="87.656" cy="90.234" r="5.156"/>
	</g>
	<g>
		<path fill="#707070" d="M138.787,125.164l-17.615-4.145L82.5,141.797L43.828,121.02l-17.615,4.145
			c-9.316,2.193-15.901,10.506-15.901,20.078v12.023c0,4.271,3.463,7.734,7.734,7.734h128.906c4.271,0,7.734-3.463,7.734-7.734
			v-12.023C154.688,135.67,148.104,127.357,138.787,125.164z"/>
	</g>
	<g>
		<rect x="79.922" y="139.219" fill="#595959" width="5.156" height="25.781"/>
	</g>
	<g>
		<path fill="#656565" d="M82.5,139.219l-15.603,13.652c-2.541,2.223-6.498,1.445-8.007-1.574l-15.062-30.125l10.313-10.313
			L82.5,139.219z"/>
	</g>
	<g>
		<path fill="#656565" d="M82.5,139.219l15.603,13.652c2.54,2.223,6.497,1.445,8.007-1.574l15.063-30.125l-10.313-10.313
			L82.5,139.219z"/>
	</g>
</g>
</svg>
